<svg width="50" height="50" viewBox="0 0 1200 1200" fill="none" xmlns="http://www.w3.org/2000/svg">
<path d="M0 35C0 15.67 15.67 0 35 0H1165C1184.33 0 1200 15.67 1200 35V1165C1200 1184.33 1184.33 1200 1165 1200H35C15.67 1200 0 1184.33 0 1165V35Z" fill="#531DC5"/>
<path d="M545.238 1030C483.238 1030 431.738 1019.5 390.738 998.5C349.738 977.5 319.238 949.5 299.238 914.5C279.238 879.5 269.238 841.5 269.238 800.5C269.238 724.5 298.238 666 356.238 625C414.238 584 493.238 563.5 593.238 563.5H794.238V554.5C794.238 489.5 777.238 440.5 743.238 407.5C709.238 373.5 663.738 356.5 606.738 356.5C557.738 356.5 515.238 369 479.238 394C444.238 418 422.238 453.5 413.238 500.5H284.238C289.238 446.5 307.238 401 338.238 364C370.238 327 409.738 299 456.738 280C503.738 260 553.738 250 606.738 250C710.738 250 788.738 278 840.738 334C893.738 389 920.238 462.5 920.238 554.5V1012H807.738L800.238 878.5C779.238 920.5 748.238 956.5 707.238 986.5C667.238 1015.5 613.238 1030 545.238 1030ZM564.738 923.5C612.738 923.5 653.738 911 687.738 886C722.738 861 749.238 828.5 767.238 788.5C785.238 748.5 794.238 706.5 794.238 662.5V661H603.738C529.738 661 477.238 674 446.238 700C416.238 725 401.238 756.5 401.238 794.5C401.238 833.5 415.238 865 443.238 889C472.238 912 512.738 923.5 564.738 923.5Z" fill="#F7F7FB"/>
</svg>
